HIERARCHY
ROOT Hips
{
	OFFSET -0.001795 -0.223333 0.028219
	CHANNELS 6 Xposition Yposition Zposition Zrotation Yrotation Xrotation 
	JOINT LeftUpLeg
	{
		OFFSET 0.069520 -0.091406 -0.006815
		CHANNELS 3 Zrotation Yrotation Xrotation
		JOINT LeftLeg
		{
			OFFSET 0.034277 -0.375199 -0.004496
			CHANNELS 3 Zrotation Yrotation Xrotation
			JOINT LeftFoot
			{
				OFFSET -0.013596 -0.397961 -0.043693
				CHANNELS 3 Zrotation Yrotation Xrotation
				JOINT LeftToe
				{
					OFFSET 0.026358 -0.055791 0.119288
					CHANNELS 3 Zrotation Yrotation Xrotation
					End Site
					{
						OFFSET 0.000000 0.000000 0.000000
					}
				}
			}
		}
	}
	JOINT RightUpLeg
	{
		OFFSET -0.067670 -0.090522 -0.004320
		CHANNELS 3 Zrotation Yrotation Xrotation
		JOINT RightLeg
		{
			OFFSET -0.038290 -0.382569 -0.008850
			CHANNELS 3 Zrotation Yrotation Xrotation
			JOINT RightFoot
			{
				OFFSET 0.015774 -0.398415 -0.042312
				CHANNELS 3 Zrotation Yrotation Xrotation
				JOINT RightToe
				{
					OFFSET -0.025372 -0.048144 0.123348
					CHANNELS 3 Zrotation Yrotation Xrotation
					End Site
					{
						OFFSET 0.000000 0.000000 0.000000
					}
				}
			}
		}
	}
	JOINT Spine
	{
		OFFSET -0.002533 0.108963 -0.026696
		CHANNELS 3 Zrotation Yrotation Xrotation
		JOINT Spine1
		{
			OFFSET 0.005487 0.135180 0.001092
			CHANNELS 3 Zrotation Yrotation Xrotation
			JOINT Spine2
			{
				OFFSET 0.001457 0.052922 0.025425
				CHANNELS 3 Zrotation Yrotation Xrotation
				JOINT Neck
				{
					OFFSET -0.002778 0.213870 -0.042857
					CHANNELS 3 Zrotation Yrotation Xrotation
					JOINT Head
					{
						OFFSET 0.005152 0.064970 0.051349
						CHANNELS 3 Zrotation Yrotation Xrotation
						End Site
						{
							OFFSET 0.000000 0.000000 0.000000
						}
					}
				}
				JOINT LeftShoulder
				{
					OFFSET 0.078845 0.121749 -0.034090
					CHANNELS 3 Zrotation Yrotation Xrotation
					JOINT LeftArm
					{
						OFFSET 0.090977 0.030469 -0.008868
						CHANNELS 3 Zrotation Yrotation Xrotation
						JOINT LeftForeArm
						{
							OFFSET 0.259612 -0.012772 -0.027456
							CHANNELS 3 Zrotation Yrotation Xrotation
							JOINT LeftHand
							{
								OFFSET 0.249234 0.008986 -0.001171
								CHANNELS 3 Zrotation Yrotation Xrotation
								End Site
								{
									OFFSET 0.000000 0.000000 0.000000
								}
							}
						}
					}
				}
				JOINT RightShoulder
				{
					OFFSET -0.081759 0.118833 -0.038615
					CHANNELS 3 Zrotation Yrotation Xrotation
					JOINT RightArm
					{
						OFFSET -0.096012 0.032551 -0.009143
						CHANNELS 3 Zrotation Yrotation Xrotation
						JOINT RightForeArm
						{
							OFFSET -0.253742 -0.013329 -0.021401
							CHANNELS 3 Zrotation Yrotation Xrotation
							JOINT RightHand
							{
								OFFSET -0.255298 0.007772 -0.005559
								CHANNELS 3 Zrotation Yrotation Xrotation
								End Site
								{
									OFFSET 0.000000 0.000000 0.000000
								}
							}
						}
					}
				}
			}
		}
	}
}
MOTION
Frames: 11
Frame Time: 0.050000
-0.016966 0.865075 0.180838 0.831440 -10.340101 -12.884476 14.402608 0.705787 0.473991 -5.469611 2.417072 32.713176 4.622654 7.986808 -10.131139 0.000000 0.000000 0.000000 -13.716623 0.470550 0.750379 11.732267 -1.730393 38.233161 -8.840802 -18.812300 -13.971820 0.000000 0.000000 0.000000 10.676795 0.262855 1.199567 -9.139601 2.921943 -21.380712 -0.976618 12.786708 22.513089 12.929021 -5.379349 -23.681551 0.000000 0.000000 0.000000 -18.144896 -17.319646 6.375594 -35.181875 -31.327583 3.108624 120.451385 -42.782788 -65.387984 0.000000 0.000000 0.000000 26.987032 4.993761 3.613889 33.471469 34.948039 3.573567 -113.937622 49.340098 -60.391311 0.000000 0.000000 0.000000 
-0.015945 0.866208 0.185254 1.062940 -10.690960 -13.539676 13.626435 0.674646 1.636176 -4.880793 2.191233 32.501118 4.735729 8.448823 -9.834271 0.000000 0.000000 0.000000 -13.768988 0.520611 2.089463 10.970303 -1.355488 37.448760 -8.755324 -18.293547 -14.088279 0.000000 0.000000 0.000000 10.909516 0.639016 -1.226013 -9.017193 2.880371 -21.332373 -0.672310 13.098469 22.547604 12.317476 -4.926404 -23.817705 0.000000 0.000000 0.000000 -16.427306 -17.203494 6.258592 -36.649649 -32.785231 3.692826 123.208911 -39.569735 -63.703279 0.000000 0.000000 0.000000 25.136356 5.009309 3.529926 33.243072 35.619424 3.782581 -115.284622 46.206515 -57.535763 0.000000 0.000000 0.000000 
-0.015587 0.866423 0.189026 0.781440 -10.383286 -14.019687 13.257345 0.645414 2.382176 -3.844110 1.667554 32.497730 4.755115 8.421690 -10.050615 0.000000 0.000000 0.000000 -13.195571 0.504025 3.802138 10.346833 -1.189317 36.171825 -8.813908 -18.410425 -14.441156 0.000000 0.000000 0.000000 11.067329 0.966619 -3.251505 -9.147167 2.932917 -21.284265 -0.412796 13.022398 22.727438 12.283292 -5.012821 -23.118499 0.000000 0.000000 0.000000 -13.989674 -17.178165 6.139767 -38.579019 -35.965363 4.924712 124.655086 -37.264287 -61.788478 0.000000 0.000000 0.000000 23.527503 4.913142 3.433119 32.267075 37.082429 4.019343 -116.099827 42.320076 -53.084060 0.000000 0.000000 0.000000 
-0.015782 0.865496 0.191718 0.614089 -10.696755 -14.425269 12.846712 0.647191 2.999733 -2.922564 1.311336 32.754629 4.932168 8.924987 -10.261804 0.000000 0.000000 0.000000 -12.789739 0.510858 4.868784 9.794996 -0.942955 35.489178 -8.826527 -18.141871 -15.085371 0.000000 0.000000 0.000000 11.292344 1.198937 -4.500917 -9.067594 2.897421 -21.309147 -0.217477 12.964038 22.748037 12.495615 -5.277163 -22.666406 0.000000 0.000000 0.000000 -12.592450 -17.352576 6.227691 -38.597311 -38.271367 5.604475 126.114068 -34.498615 -58.974769 0.000000 0.000000 0.000000 22.401881 5.609140 3.699523 30.227382 38.154219 3.871869 -116.457654 38.892961 -49.096769 0.000000 0.000000 0.000000 
-0.016390 0.862687 0.192945 0.555377 -10.769936 -14.787673 12.399790 0.645578 2.770482 -1.976573 0.967140 34.104037 5.071106 9.261515 -10.469788 0.000000 0.000000 0.000000 -12.484060 0.508271 5.832789 9.352986 -0.780133 34.920931 -8.945625 -18.180791 -16.302321 0.000000 0.000000 0.000000 11.249569 1.302721 -5.087175 -9.103570 2.894332 -21.600294 0.197939 12.953300 23.038434 12.868361 -5.561448 -22.575413 0.000000 0.000000 0.000000 -11.618250 -17.934072 6.474545 -37.756033 -40.111280 5.927439 127.186970 -32.335535 -56.654169 0.000000 0.000000 0.000000 21.269311 5.964153 3.810832 28.350212 38.978624 3.636344 -116.865222 35.701223 -45.247692 0.000000 0.000000 0.000000 
-0.017404 0.859933 0.192776 0.490909 -11.126649 -15.282658 12.097402 0.662068 3.038081 -1.209146 0.693456 34.855437 5.252875 9.743908 -10.845719 0.000000 0.000000 0.000000 -11.856625 0.485683 6.942322 8.420818 -0.403006 34.158618 -9.081640 -18.081705 -17.740564 0.000000 0.000000 0.000000 11.570794 1.353301 -5.015497 -9.102554 2.867897 -22.061797 0.213564 13.283360 23.138348 13.276599 -5.714185 -23.055220 0.000000 0.000000 0.000000 -11.158762 -18.210373 6.558581 -36.588430 -40.636441 5.750211 127.945754 -31.038219 -55.501891 0.000000 0.000000 0.000000 21.306533 6.462082 4.146589 26.553133 39.067681 3.179613 -117.677053 33.903870 -43.524422 0.000000 0.000000 0.000000 
-0.019068 0.858295 0.191494 0.385731 -11.418543 -15.507466 11.748962 0.665280 3.003011 -0.009535 0.227896 36.133221 4.981839 8.855520 -11.784830 0.000000 0.000000 0.000000 -11.128152 0.432256 7.465098 7.586699 -0.067702 33.739500 -9.206874 -18.118969 -18.677689 0.000000 0.000000 0.000000 11.827691 1.317616 -4.530450 -9.394115 2.926345 -22.587606 0.442087 12.992970 23.626487 13.622838 -5.962631 -23.403325 0.000000 0.000000 0.000000 -11.117867 -18.004619 6.556841 -35.047182 -40.792540 5.360749 128.028691 -29.981301 -53.719804 0.000000 0.000000 0.000000 21.407713 6.945482 4.315779 24.330971 39.581229 2.710615 -116.907072 32.047531 -40.842900 0.000000 0.000000 0.000000 
-0.021417 0.857341 0.189945 0.329975 -11.937845 -15.326512 11.670022 0.677143 2.596021 0.792802 -0.014856 37.511330 4.598440 7.654080 -12.601700 0.000000 0.000000 0.000000 -10.667009 0.420200 7.830455 7.125347 0.106395 32.682471 -9.288191 -17.780879 -19.772860 0.000000 0.000000 0.000000 11.949189 1.201778 -3.728826 -9.319403 2.866580 -23.127876 0.640083 13.196161 23.806241 13.940019 -6.130263 -23.743821 0.000000 0.000000 0.000000 -12.181182 -18.078231 6.678586 -33.996761 -39.550234 4.773875 129.119324 -29.393514 -53.839031 0.000000 0.000000 0.000000 21.687787 7.068720 4.364993 24.033226 39.931752 2.689556 -118.107311 30.686183 -39.893683 0.000000 0.000000 0.000000 
-0.024441 0.857717 0.188782 0.253354 -12.491608 -15.176743 11.680921 0.695103 2.498850 1.395083 -0.173840 38.482313 4.322861 6.807215 -13.142958 0.000000 0.000000 0.000000 -10.281706 0.417052 8.225481 6.863981 0.195632 31.581364 -9.311903 -17.280161 -20.427295 0.000000 0.000000 0.000000 11.947015 1.134522 -3.307063 -8.967168 2.760898 -22.817192 0.574723 13.168932 23.647487 14.581147 -6.682238 -23.445808 0.000000 0.000000 0.000000 -13.607396 -18.154785 6.868276 -32.677794 -37.320816 3.940847 130.016763 -28.815186 -53.716047 0.000000 0.000000 0.000000 22.398237 7.303787 4.434364 23.841845 40.375619 2.722756 -117.730944 29.822570 -38.607790 0.000000 0.000000 0.000000 
-0.027905 0.858165 0.188626 -0.147026 -12.970580 -14.906596 12.187876 0.731413 2.717594 1.566252 -0.172473 38.928242 4.314749 6.622500 -14.036269 0.000000 0.000000 0.000000 -9.814962 0.406295 9.025675 7.044539 0.063458 29.825792 -9.300384 -16.632569 -21.094400 0.000000 0.000000 0.000000 12.279303 1.154139 -3.252973 -8.862162 2.737580 -22.333545 0.881037 13.165391 24.057626 14.102178 -6.287847 -24.002548 0.000000 0.000000 0.000000 -14.121129 -17.375642 6.595799 -33.637887 -36.148302 3.814324 130.790698 -29.483896 -55.393071 0.000000 0.000000 0.000000 22.245506 7.047574 4.196124 25.463062 41.215893 3.314736 -117.810364 29.377975 -37.893324 0.000000 0.000000 0.000000 
-0.031451 0.858406 0.189286 -0.313342 -13.717413 -14.507014 12.505483 0.769146 2.450877 1.900048 -0.171583 39.546245 4.087410 6.128760 -13.812810 0.000000 0.000000 0.000000 -9.963369 0.479006 9.381354 7.747812 -0.178223 28.447093 -9.246369 -15.639353 -21.724719 0.000000 0.000000 0.000000 12.745943 1.150305 -2.995120 -8.677493 2.676941 -21.976905 0.781209 13.624545 24.327782 14.112828 -6.169856 -24.565692 0.000000 0.000000 0.000000 -15.184598 -16.522260 6.247617 -34.564503 -34.086424 3.438903 131.512056 -30.942351 -58.540322 0.000000 0.000000 0.000000 21.980251 6.665095 3.955055 27.698508 41.783268 4.051284 -117.842883 29.136091 -37.227409 0.000000 0.000000 0.000000 
